<svg xmlns="http://www.w3.org/2000/svg" width="15.845" height="15.844" viewBox="0 0 15.845 15.844"><defs><style>.a{fill:#1a74bb;}</style></defs><g transform="translate(-3.257 -0.939)"><g transform="translate(3.257 0.939)"><path class="a" d="M18.449,2.64,17.4,1.59a2.229,2.229,0,0,0-3.149,0L4.8,11.038a.494.494,0,0,0-.126.214l-1.4,4.9a.5.5,0,0,0,.612.613l4.9-1.4A.49.49,0,0,0,9,15.239l9.448-9.449a2.225,2.225,0,0,0,0-3.149ZM8.392,14.446,4.472,15.566l1.119-3.919L13.2,4.038l2.8,2.8ZM17.749,5.09,16.7,6.139l-2.8-2.8,1.05-1.05a1.24,1.24,0,0,1,1.75,0l1.05,1.05a1.238,1.238,0,0,1,0,1.75Z" transform="translate(-3.257 -0.939)"/></g></g></svg>