<svg xmlns="http://www.w3.org/2000/svg" width="18.719" height="21.841" viewBox="0 0 18.719 21.841">
  <g id="attachment_icn" transform="translate(7396 5367.998)">
    <path id="Path_11845" data-name="Path 11845" d="M17.258,2H6.34A2.274,2.274,0,0,0,4,4.339V21.5a2.274,2.274,0,0,0,2.34,2.34H20.379a2.274,2.274,0,0,0,2.34-2.34V7.46A5.266,5.266,0,0,0,17.258,2Zm3.819,4.68H18.82a.713.713,0,0,1-.78-.78V3.621A3.536,3.536,0,0,1,21.077,6.679Zm-.7,15.6H6.34a.714.714,0,0,1-.78-.78V4.339a.714.714,0,0,1,.78-.78H16.48V5.9a2.274,2.274,0,0,0,2.34,2.34h2.339V21.5A.716.716,0,0,1,20.373,22.28ZM17.26,12.139v3.119a2.34,2.34,0,0,1-4.68,0v-3.12a.78.78,0,0,1,1.56,0v3.12a.78.78,0,1,0,1.561-.009V12.139a2.34,2.34,0,0,0-4.68,0v3.9a3.123,3.123,0,0,0,3.12,3.12h2.34a.78.78,0,0,1,0,1.56h-2.34a4.685,4.685,0,0,1-4.68-4.68v-3.9a3.9,3.9,0,1,1,7.8,0Z" transform="translate(-7400 -5369.997)" fill="#1a74bb"/>
  </g>
</svg>
