<svg xmlns="http://www.w3.org/2000/svg" width="20.523" height="25.067" viewBox="0 0 20.523 25.067"><defs><style>.a{fill:#c43079;}</style></defs><g transform="translate(-25 -19.772)"><path class="a" d="M44.745,23.552a14.181,14.181,0,0,1-8.889-3.564.872.872,0,0,0-1.147,0,14,14,0,0,1-8.889,3.564.822.822,0,0,0-.819.819V36.7a.772.772,0,0,0,.082.328,13.412,13.412,0,0,0,8.6,7.415c1.966.533,1.27.533,3.154-.041a13.286,13.286,0,0,0,8.6-7.415.964.964,0,0,0,.082-.328V24.372A.814.814,0,0,0,44.745,23.552Zm-.082,13.109a12.346,12.346,0,0,1-8.07,6.964l-1.352.41-1.352-.369a12.565,12.565,0,0,1-8.07-6.964V24.372A14.687,14.687,0,0,0,35.241,20.6a14.908,14.908,0,0,0,9.422,3.769ZM34.5,27.813,33.4,30.025l-2.417.369a.74.74,0,0,0-.655.574.853.853,0,0,0,.2.819l1.761,1.721-.41,2.417a.93.93,0,0,0,.328.819.839.839,0,0,0,.86.082l2.171-1.147,2.171,1.147a.839.839,0,0,0,.86-.082.93.93,0,0,0,.328-.819l-.41-2.417,1.761-1.721a.853.853,0,0,0,.2-.819.74.74,0,0,0-.655-.574l-2.417-.369-1.106-2.212a.829.829,0,0,0-1.475,0ZM36.47,30.8l2.868.41L37.289,33.22l.492,2.827-2.54-1.352L32.7,36.047l.492-2.827-2.048-2.007,2.868-.41,1.229-2.622Z" transform="translate(0)"/></g></svg>