<svg xmlns="http://www.w3.org/2000/svg" width="16.668" height="24.653" viewBox="0 0 16.668 24.653"><defs><style>.a{fill:#843ac1;}</style></defs><g transform="translate(-90.391 -643.993)"><g transform="translate(90.391 643.993)"><g transform="translate(0 0)"><path class="a" d="M115.544,27.393h-4.993a1.822,1.822,0,0,0-3.542,0h-4.885a1.626,1.626,0,0,0-1.624,1.624V49.029a1.626,1.626,0,0,0,1.624,1.624h13.42a1.626,1.626,0,0,0,1.624-1.624V29.018A1.626,1.626,0,0,0,115.544,27.393Zm-6.763-.536a.965.965,0,1,1-.965.965A.966.966,0,0,1,108.781,26.857Zm7.53,22.171a.768.768,0,0,1-.767.767h-13.42a.768.768,0,0,1-.767-.767V29.018a.768.768,0,0,1,.767-.767h4.885a1.822,1.822,0,0,0,3.542,0h4.993a.768.768,0,0,1,.767.767Z" transform="translate(-100.5 -26)"/><path class="a" d="M167.823,209.408a2.968,2.968,0,1,0-3.372,0,5.1,5.1,0,0,0-3.4,4.8v.429h10.178v-.429A5.1,5.1,0,0,0,167.823,209.408Zm-3.8-2.44a2.11,2.11,0,1,1,2.11,2.11A2.113,2.113,0,0,1,164.027,206.968Zm-2.1,6.813a4.232,4.232,0,0,1,8.42,0Z" transform="translate(-157.803 -194.46)"/></g></g></g></svg>